<?xml version="1.0" encoding="utf-8"?>
<?xml-stylesheet type="text/xsl" href="rss1.xsl"?>
<rss version="2.0" xmlns:atom="http://www.w3.org/2005/Atom" xmlns:content="http://purl.org/rss/1.0/modules/content/" xmlns:dc="http://purl.org/dc/elements/1.1/" xmlns:media="http://search.yahoo.com/mrss/">
<channel>
 <title>Getty</title>
 <link>http://www.gettyimg.com/</link>
 <atom:link href="http://www.gettyimg.com/" rel="self" type="application/rss+xml" />

 
                <item>
                <title><![CDATA[【PRORES HD】Omar Apollo – Live For Me (ProRes 4K)]]></title>
                <link><![CDATA[https://sharemania.us/threads/omar-apollo-%E2%80%93-live-for-me-prores-4k.230607/]]></link>
                <description><![CDATA[<article>
<blockquote class="messageText SelectQuoteContainer ugc baseHtml">
<div style="text-align: center"><img src="https://i.imgur.com/3OLMh4I.gif" class="bbCodeImage LbImage" alt="[​IMG]" data-url="https://i.imgur.com/3OLMh4I.gif" style=""><br>
​</div>
<div class="ToggleTriggerAnchor bbCodeSpoilerContainer">
<button type="button" class="button bbCodeSpoilerButton ToggleTrigger Tooltip JsOnly" data-target="> .SpoilerTarget"><span>Spoiler: <span class="SpoilerTitle">ProRes</span></span></button>
<div class="SpoilerTarget bbCodeSpoilerText">
<div class="bbCodeBlock bbCodeCode">
<div class="type">Code:</div>
<pre>Format                                   : MPEG-4
Format profile                           : QuickTime
Codec ID                                 : qt   2005.03 (qt  )
File size                                : 6.41 GiB
Duration                                 : 3 min 44 s
Overall bit rate mode                    : Variable
Overall bit rate                         : 245 Mb/s
Encoded date                             : UTC 2023-10-02 22:31:33
Tagged date                              : UTC 2023-10-02 22:33:22
Writing library                          : Apple QuickTime
TIM                                      : 00:00:00:00
TSC                                      : 25
TSZ                                      : 1

Video
ID                                       : 1
Format                                   : ProRes
Format version                           : Version 0
Format profile                           : 422 LT
Codec ID                                 : apcs
Duration                                 : 3 min 44 s
Bit rate mode                            : Variable
Bit rate                                 : 244 Mb/s
Width                                    : 3 146 pixels
Height                                   : 2 160 pixels
Display aspect ratio                     : 3:2
Frame rate mode                          : Constant
Frame rate                               : 25.000 FPS
Color space                              : YUV
Chroma subsampling                       : 4:2:2
Scan type                                : Progressive
Bits/(Pixel*Frame)                       : 1.434
Stream size                              : 6.37 GiB (99%)
Writing library                          : Apple
Language                                 : English
Encoded date                             : UTC 2023-10-02 22:31:33
Tagged date                              : UTC 2023-10-02 22:31:33
Color primaries                          : BT.709
Transfer characteristics                 : BT.709
Matrix coefficients                      : BT.709

Audio
ID                                       : 2
Format                                   : PCM
Format settings                          : Little / Signed
Codec ID                                 : sowt
Duration                                 : 3 min 44 s
Bit rate mode                            : Constant
Bit rate                                 : 1 536 kb/s
Channel(s)                               : 2 channels
Channel layout                           : L R
Sampling rate                            : 48.0 kHz
Bit depth                                : 16 bits
Stream size                              : 41.1 MiB (1%)
Language                                 : English
Encoded date                             : UTC 2023-10-02 22:31:33
Tagged date                              : UTC 2023-10-02 22:31:33

Other
ID                                       : 3
Type                                     : Time code
Format                                   : QuickTime TC
Duration                                 : 3 min 44 s
Frame rate                               : 25.000 FPS
Time code of first frame                 : 00:00:00:00
Time code, striped                       : Yes
Language                                 : English
Encoded date                             : UTC 2023-10-02 22:31:33
Tagged date                              : UTC 2023-10-02 22:31:33</pre>
</div><div style="text-align: center">​</div></div>
</div><div style="text-align: center"><br>
<div class="bbCodeBlock bbCodeVfcHH HiddenContent">
<div class="attribution type">Hidden Content:</div>
<blockquote>You must reply before you can see the hidden data contained here.</blockquote>
</div></div>
<div class="messageTextEndMarker">&nbsp;</div>
</blockquote>
</article>]]></description>
                <author><![CDATA[fstambuk]]></author>
                </item>

                
                <item>
                <title><![CDATA[【Music Videos】PACK - ARTBAT &amp; David Guetta feat. Idris Elba - It's Ours (2022)]]></title>
                <link><![CDATA[https://sharemania.us/threads/artbat-david-guetta-feat-idris-elba-its-ours-2022.230606/]]></link>
                <description><![CDATA[<article>
<blockquote class="messageText SelectQuoteContainer ugc baseHtml">
<div style="text-align: center"><img src="https://i.discogs.com/nZjcqPXHV4BN61WwVufSPXq7bPRwg4ZvYGWa3iqt6YM/rs:fit/g:sm/q:90/h:600/w:600/czM6Ly9kaXNjb2dz/LWRhdGFiYXNlLWlt/YWdlcy9SLTI0ODI1/MTEwLTE2NjU3Nzk4/MzUtMzE4Ni5qcGVn.jpeg" class="bbCodeImage LbImage" alt="[​IMG]" data-url="https://i.discogs.com/nZjcqPXHV4BN61WwVufSPXq7bPRwg4ZvYGWa3iqt6YM/rs:fit/g:sm/q:90/h:600/w:600/czM6Ly9kaXNjb2dz/LWRhdGFiYXNlLWlt/YWdlcy9SLTI0ODI1/MTEwLTE2NjU3Nzk4/MzUtMzE4Ni5qcGVn.jpeg" style=""> <br>
<img src="https://i.postimg.cc/sxYh0L1k/Artbat-David-Guetta-Featuring-Idris-Elba-It-s-Ours-Short-Version-2022-mp4-thumbs.jpg" class="bbCodeImage LbImage" alt="[​IMG]" data-url="https://i.postimg.cc/sxYh0L1k/Artbat-David-Guetta-Featuring-Idris-Elba-It-s-Ours-Short-Version-2022-mp4-thumbs.jpg" style=""> <br>
<div class="bbCodeBlock bbCodeVfcHH HiddenContent">
<div class="attribution type">Hidden Content:</div>
<blockquote>You must either reply or click 'Like' to see the hidden information contained here.</blockquote>
</div><img src="https://i.postimg.cc/XqLwYh3w/Artbat-David-Guetta-Featuring-Idris-Elba-It-s-Ours-2022-mp4-thumbs.jpg" class="bbCodeImage LbImage" alt="[​IMG]" data-url="https://i.postimg.cc/XqLwYh3w/Artbat-David-Guetta-Featuring-Idris-Elba-It-s-Ours-2022-mp4-thumbs.jpg" style=""> <br>
<div class="bbCodeBlock bbCodeVfcHH HiddenContent">
<div class="attribution type">Hidden Content:</div>
<blockquote>You must either reply or click 'Like' to see the hidden information contained here.</blockquote>
</div></div>
<div class="messageTextEndMarker">&nbsp;</div>
</blockquote>
</article>]]></description>
                <author><![CDATA[Fan Made]]></author>
                </item>

                
                <item>
                <title><![CDATA[【Requests】[REQ VID] - Justin Bieber - Z100 iHeart Radio Jingle Ball 2016]]></title>
                <link><![CDATA[https://sharemania.us/threads/justin-bieber-z100-iheart-radio-jingle-ball-2016.230605/]]></link>
                <description><![CDATA[<article>
<blockquote class="messageText SelectQuoteContainer ugc baseHtml">
Hey, does anyone have performance video of Justin Bieber - Z100 iHeart Radio Jingle Ball 2016 ?<br>
<br>
Cant download from here because the link is not working anymore, and torrent has no seeder<br>
<a href="https://sharemania.us/threads/justin-bieber-z100-iheart-radio-jingle-ball-2016-1080i-alanis.40623/" class="internalLink">https://sharemania.us/threads/justin-bieber-z100-iheart-radio-jingle-ball-2016-1080i-alanis.40623/</a><br>
<br>
If anybody has this, please share it with us<br>
Thank you so much
<div class="messageTextEndMarker">&nbsp;</div>
</blockquote>
</article>]]></description>
                <author><![CDATA[muh]]></author>
                </item>

                </channel></rss>